<?xml version="1.0" encoding="UTF-8" standalone="no"?>
<!-- Generator: Adobe Illustrator 22.1.0, SVG Export Plug-In . SVG Version: 6.00 Build 0)  -->

<svg
   version="1.1"
   id="Layer_1"
   x="0px"
   y="0px"
   viewBox="0 0 26 26"
   style="enable-background:new 0 0 26 26;"
   xml:space="preserve"
   sodipodi:docname="github.svg"
   inkscape:version="1.2.2 (732a01da63, 2022-12-09, custom)"
   xmlns:inkscape="http://www.inkscape.org/namespaces/inkscape"
   xmlns:sodipodi="http://sodipodi.sourceforge.net/DTD/sodipodi-0.dtd"
   xmlns="http://www.w3.org/2000/svg"
   xmlns:svg="http://www.w3.org/2000/svg"><defs
   id="defs14173" /><sodipodi:namedview
   id="namedview14171"
   pagecolor="#ffffff"
   bordercolor="#000000"
   borderopacity="0.25"
   inkscape:showpageshadow="2"
   inkscape:pageopacity="0.0"
   inkscape:pagecheckerboard="0"
   inkscape:deskcolor="#d1d1d1"
   showgrid="false"
   inkscape:zoom="32.692308"
   inkscape:cx="6.5611765"
   inkscape:cy="13.015294"
   inkscape:window-width="1860"
   inkscape:window-height="1016"
   inkscape:window-x="60"
   inkscape:window-y="27"
   inkscape:window-maximized="1"
   inkscape:current-layer="Layer_1" />
<style
   type="text/css"
   id="style14162">
	.st0{fill:#FFFFFF;}
</style>
<g
   id="g14168">
	<g
   id="g14166">
		<path
   class="st0"
   d="M13,0C5.8,0,0,5.8,0,13c0,5.8,3.7,10.6,8.9,12.3c0.6,0.1,0.9-0.3,0.9-0.6c0-0.3,0-1.3,0-2.4    c-3.3,0.6-4.1-0.8-4.4-1.5c-0.1-0.4-0.8-1.5-1.3-1.8c-0.5-0.2-1.1-0.8,0-0.9c1,0,1.8,0.9,2,1.3c1.2,2,3,1.4,3.8,1.1    c0.1-0.8,0.5-1.4,0.8-1.7c-2.9-0.3-5.9-1.4-5.9-6.4c0-1.4,0.5-2.6,1.3-3.5C5.9,8.5,5.5,7.2,6.2,5.4c0,0,1.1-0.3,3.6,1.3    c1-0.3,2.1-0.4,3.3-0.4c1.1,0,2.2,0.1,3.3,0.4c2.5-1.7,3.6-1.3,3.6-1.3c0.7,1.8,0.3,3.1,0.1,3.4c0.8,0.9,1.3,2.1,1.3,3.5    c0,5-3,6.1-5.9,6.4c0.5,0.4,0.9,1.2,0.9,2.4c0,1.7,0,3.1,0,3.6c0,0.3,0.2,0.7,0.9,0.6C22.3,23.6,26,18.7,26,13C26,5.8,20.2,0,13,0    z"
   id="path14164"
   style="fill:#bdbdbd;fill-opacity:1" />
	</g>
</g>
</svg>
