<?xml version="1.0" encoding="UTF-8" standalone="no"?>
<svg
   width="12"
   height="12"
   focusable="false"
   viewBox="0 0 12 12"
   version="1.1"
   id="svg20"
   sodipodi:docname="github_logo"
   inkscape:version="1.2.2 (732a01da63, 2022-12-09, custom)"
   xmlns:inkscape="http://www.inkscape.org/namespaces/inkscape"
   xmlns:sodipodi="http://sodipodi.sourceforge.net/DTD/sodipodi-0.dtd"
   xmlns="http://www.w3.org/2000/svg"
   xmlns:svg="http://www.w3.org/2000/svg">
  <defs
     id="defs24" />
  <sodipodi:namedview
     id="namedview22"
     pagecolor="#ffffff"
     bordercolor="#000000"
     borderopacity="0.25"
     inkscape:showpageshadow="2"
     inkscape:pageopacity="0"
     inkscape:pagecheckerboard="0"
     inkscape:deskcolor="#d1d1d1"
     showgrid="false"
     inkscape:zoom="50.08673"
     inkscape:cx="0.95833766"
     inkscape:cy="5.9197316"
     inkscape:window-width="1860"
     inkscape:window-height="1016"
     inkscape:window-x="60"
     inkscape:window-y="27"
     inkscape:window-maximized="1"
     inkscape:current-layer="svg20" />
  <path
     id="path18"
     d="M 6,0 A 6,6 0 0 0 6,12 6,6 0 0 0 6,0 Z m 0,0.98046875 c 2.7569972,0 5,2.24253405 5,5.01953125 a 5.02,5.02 0 0 1 -3.4375,4.769531 c -0.2379998,0.037 -0.3222656,-0.114141 -0.3222656,-0.24414 l 0.00586,-1.3789066 c 0,-0.4679996 -0.159844,-0.7746877 -0.3398438,-0.9296875 1.1139989,-0.1239999 2.2832031,-0.5485176 2.2832031,-2.4785157 0,-0.5479994 -0.1936722,-0.9957034 -0.5136719,-1.3457031 0.05,-0.1279998 0.2231717,-0.6380788 -0.048828,-1.3300781 0,0 -0.4200009,-0.1343743 -1.375,0.515625 C 6.8529535,3.4661251 6.4249996,3.4102031 6,3.4082031 A 4.77,4.77 0 0 0 4.7480469,3.5761719 C 3.9610477,3.0411724 3.5380624,3.0386875 3.4140625,3.0546875 L 3.3730469,3.0625 C 3.1420471,3.6484994 3.2309219,4.1036408 3.2949219,4.3066406 l 0.029297,0.083984 c -0.3199998,0.352 -0.513672,0.7996572 -0.513672,1.3476566 0,1.9239981 1.1673448,2.3554221 2.2773437,2.4824219 C 4.9448908,8.346703 4.8155312,8.5675785 4.7695312,8.8925781 4.4845315,9.020578 3.7604527,9.2416086 3.3144531,8.4746094 L 3.2578125,8.3867188 C 3.1538126,8.2447189 2.9138278,7.9830312 2.5488281,7.9570312 c 0,0 -0.4872026,-0.00536 -0.033203,0.3066407 0,0 0.3276877,0.1524224 0.5546875,0.7324219 0,0 0.2935951,0.9787809 1.6835937,0.6757812 l 0.00781,0.853516 c 0,0.121 -0.076297,0.26 -0.2792969,0.25 A 0.594,0.594 0 0 1 4.4375,10.769531 5.02,5.02 0 0 1 1,6 C 1,3.2230028 3.2430028,0.98046875 6,0.98046875 Z"
     style="display:inline;fill:#bdbdbd;fill-opacity:1" />
</svg>
